<?xml version="1.0" encoding="utf-8"?>
<!-- Generator: Adobe Illustrator 18.1.0, SVG Export Plug-In . SVG Version: 6.00 Build 0)  -->
<svg version="1.1" id="Layer_1" xmlns="http://www.w3.org/2000/svg" xmlns:xlink="http://www.w3.org/1999/xlink" x="0px" y="0px"
	 width="99.6px" height="117.9px" viewBox="0 0 99.6 117.9" enable-background="new 0 0 99.6 117.9" xml:space="preserve">
<polygon fill="#BCBBBB" points="84.1,107.4 84.1,75.8 94.6,75.8 94.6,117.9 0,117.9 0,75.8 10.5,75.8 10.5,107.4 "/>
<path fill="#BCBBBB" d="M22.1,72.9l51.5,10.8l2.2-10.3L24.3,62.6L22.1,72.9z M28.9,48.3l47.7,22.2l4.4-9.5L33.3,38.7L28.9,48.3z
	 M42.1,24.9l40.4,33.7l6.7-8.1L48.8,16.8L42.1,24.9z M68.2,0l-8.4,6.3l31.4,42.2l8.4-6.3L68.2,0z M21,96.8l52.6,0V86.3l-52.6,0V96.8
	z"/>
</svg>
