<svg xmlns="http://www.w3.org/2000/svg" width="178" height="14" aria-hidden="true" class="svg-icon jh-logo"><path fill="#3C3F44" fill-rule="evenodd" d="M145.437477 8.566282l-6.34247-8.33426h-2.745862v13.535956h2.939214V5.163025l6.555157 8.604953h2.532906V.232022h-2.938945v8.33426zm-18.403851-4.261523l1.490687 2.746399 4.357125-6.819136h-3.383922l-2.46389 4.072737zm-.823356 1.360981L122.981029.232022h-3.480597l5.201427 8.198914v5.337042h2.977883V8.372931L126.21027 5.66574zm29.715727 5.356377h-.005639V2.881208h7.256862V.232022h-10.209771v13.535956h10.306447v-2.649186h-7.347899v-.096675zm17.637696-5.356377c-2.339823-.59939-2.919878-.889418-2.919878-1.779104v-.038402c0-.657664.59939-1.179713 1.740164-1.179713 1.141044 0 2.320757.502714 3.519537 1.334126l1.547082-2.242879C176.077532.657396 174.395373.03867 172.422918.03867c-2.765196 0-4.737651 1.624422-4.737651 4.079988v.038939c0 2.687587 1.759768 3.441659 4.486026 4.137993 2.262482.580055 2.726795.966758 2.726795 1.72083v.03867c0 .79301-.735005 1.276389-1.95312 1.276389-1.546813 0-2.822934-.638329-4.041586-1.643757l-1.7595 2.107801c1.624422 1.450137 3.693553 2.165807 5.74308 2.165807 2.919878 0 4.969405-1.508412 4.969405-4.196268v-.03867c0-2.35889-1.546544-3.345251-4.292674-4.060652zm-16.270539 2.610515h5.013715V5.627069h-5.013715v2.649186zm-44.238313-2.687856h-5.491455V.232022h-2.977884v13.535956h2.977884V8.33426h5.491455v5.433718h2.977883V.232022h-2.977883v5.356377zM82.776245.135346l-5.532273 13.632632h2.767077l.741449-1.819116-.007519-.002954 1.568028-3.843669h-.001074l.240615-.587306.250283-.612817.000806.000268L84.11064 3.71262l1.79817 4.389619h-2.112903l-1.072833 2.629582h4.24917l1.23745 3.036157h3.113499L85.521838.135346h-2.745593zM37.584332 5.66574c-2.339823-.59939-2.919878-.889418-2.919878-1.779104v-.038402c0-.657664.59939-1.179713 1.740165-1.179713 1.141043 0 2.320756.502714 3.519537 1.334126l1.547081-2.242879C40.098172.657396 38.416013.03867 36.443558.03867c-2.765197 0-4.737652 1.624422-4.737652 4.079988v.038939c0 2.687587 1.759768 3.441659 4.486026 4.137993 2.262483.580055 2.726795.966758 2.726795 1.72083v.03867c0 .79301-.735005 1.276389-1.95312 1.276389-1.546813 0-2.822933-.638329-4.041586-1.643757l-1.759499 2.107801c1.624422 1.450137 3.693553 2.165807 5.74308 2.165807 2.919609 0 4.969405-1.508412 4.969405-4.196268v-.03867c0-2.35889-1.546545-3.345251-4.292675-4.060652zM24.813726 7.038805c0 2.320219-1.662824 4.215333-4.060652 4.215333-2.39756 0-4.099323-1.933784-4.099323-4.254272v-.038671c0-2.320219 1.662824-4.215333 4.060653-4.215333 2.39756 0 4.099322 1.933784 4.099322 4.254004v.038939zM20.753074 0c-4.176664 0-7.212553 3.1519-7.212553 6.999866v.038939C13.540521 10.88677 16.53774 14 20.714404 14c4.176663 0 7.212552-3.1519 7.212552-7.000134v-.038671C27.926956 3.11323 24.929737 0 20.753074 0zM6.168722 8.952986c0 1.566148-.696334 2.243147-1.817773 2.243147-.947423 0-1.701763-.502983-2.474901-1.35373L0 11.930869c.928356 1.102104 2.320488 2.030461 4.428021 2.030461 2.862141 0 4.795925-1.585752 4.795925-4.872998V.232022H6.168722v8.720964zm65.091823-.966758c0 2.146471-1.102104 3.248575-2.919609 3.248575-1.817774 0-2.919878-1.141043-2.919878-3.345251V.232022h-2.977884v7.73487c0 3.983312 2.223544 6.013773 5.858823 6.013773s5.9367-2.011126 5.9367-6.110448V.232022h-2.978152v7.754206zM54.549326 5.588399h-4.118658V8.33426h4.118658v5.433718h2.977883V.232022h-2.977883v5.356377zm-8.469338 8.179579h2.977883V.23229h-2.977883v13.535688z"/></svg>
