<svg aria-hidden="true" class="svg-icon jh-logo" width="144" height="144" viewBox="0 0 144 144">
  <path d="M72.0010286 0C44.0583429 0 19.8864 15.9474857 7.95445714 39.2137714H67.8533143l-4.5272572 24.8790857h35.1478286l4.1780573-24.9279428 5.733257.0653143L92.1193714 141.0948C122.081657 132.381257 144 104.7744 144 71.9979429 144 32.2354286 111.764057 0 72.0010286 0zm-9.5436 68.9009143l-2.6727429 15.9937714C57.9132 96.3596571 51.9845143 101.650629 43.0241143 101.650629c-2.4264 0-9.0858857-1.510458-12.1191429-2.9880004l-1.4256-7.0462286c2.7226286 1.7547429 6.5175429 4.6033714 13.8270857 4.3961143C49.1194286 95.8494857 53.4831429 92.8728 54.9756 83.5189714L61.542 44.388H5.5044C1.97331429 52.8953143 0 62.2126286 0 71.9979429 0 111.766114 32.2400571 144 72.0010286 144c4.7576571 0 9.3944571-.488571 13.896-1.368514l11.6588571-73.7305717H62.4574286z" fill="#404042" fill-rule="evenodd"/>
</svg>
